<?xml version="1.0" encoding="UTF-8" standalone="no"?>
<!-- Created with Inkscape (http://www.inkscape.org/) -->

<svg
   xmlns:dc="http://purl.org/dc/elements/1.1/"
   xmlns:cc="http://creativecommons.org/ns#"
   xmlns:rdf="http://www.w3.org/1999/02/22-rdf-syntax-ns#"
   xmlns:svg="http://www.w3.org/2000/svg"
   xmlns="http://www.w3.org/2000/svg"
   xmlns:sodipodi="http://sodipodi.sourceforge.net/DTD/sodipodi-0.dtd"
   xmlns:inkscape="http://www.inkscape.org/namespaces/inkscape"
   version="1.1"
   width="12"
   height="12"
   id="svg3122"
   inkscape:version="0.48.4 r9939"
   sodipodi:docname="rail-12.svg">
  <sodipodi:namedview
     pagecolor="#ffffff"
     bordercolor="#666666"
     borderopacity="1"
     objecttolerance="10"
     gridtolerance="10"
     guidetolerance="10"
     inkscape:pageopacity="0"
     inkscape:pageshadow="2"
     inkscape:window-width="1233"
     inkscape:window-height="673"
     id="namedview6309"
     showgrid="false"
     borderlayer="true"
     inkscape:zoom="2"
     inkscape:cx="26.218217"
     inkscape:cy="2.7517927"
     inkscape:window-x="566"
     inkscape:window-y="27"
     inkscape:window-maximized="0"
     inkscape:current-layer="svg3122"
     inkscape:snap-bbox="true">
    <inkscape:grid
       type="xygrid"
       id="grid6316"
       empspacing="5"
       visible="true"
       enabled="true"
       snapvisiblegridlinesonly="true" />
  </sodipodi:namedview>
  <defs
     id="defs3124" />
  <metadata
     id="metadata3127">
    <rdf:RDF>
      <cc:Work
         rdf:about="">
        <dc:format>image/svg+xml</dc:format>
        <dc:type
           rdf:resource="http://purl.org/dc/dcmitype/StillImage" />
        <dc:title />
      </cc:Work>
    </rdf:RDF>
  </metadata>
  <path
     sodipodi:nodetypes="sccccccccccccsccccccccccc"
     id="path2991"
     d="M 6,1 C 4.25,1 3.5,1.75 3,2.75 l 0,4.5 0.25,0.5 0.5,0.5 L 4.25,8.5 5,8.75 7,8.75 7.75,8.5 8.25,8.25 8.75,7.75 9,7.25 9,2.75 C 8.5,1.75 7.75,1 6,1 z M 5,2 7,2 7.5,2.25 8,3.25 7.5,3.75 7,4 5,4 4.5,3.75 4,3.25 l 0.5,-1 z"
     style="color:#000000;fill:#666677;fill-opacity:1;fill-rule:nonzero;stroke:#ffffff;stroke-width:2;marker:none;visibility:visible;display:inline;overflow:visible;enable-background:accumulate;stroke-linecap:butt;stroke-linejoin:round;stroke-miterlimit:4;stroke-opacity:1;stroke-dasharray:none;stroke-dashoffset:0"
     inkscape:connector-curvature="0" />
  <rect
     style="color:#000000;fill:#00ccff;fill-opacity:0;fill-rule:evenodd;stroke:none;stroke-width:1px;marker:none;visibility:visible;display:inline;overflow:visible;enable-background:accumulate"
     id="rect3765"
     width="12"
     height="12"
     x="0"
     y="-1.1760707e-15" />
  <g
     id="g2992"
     style="stroke:#ffffff;stroke-width:2;stroke-miterlimit:4;stroke-dasharray:none;stroke-linejoin:round">
    <path
       style="color:#000000;fill:#666677;fill-opacity:1;fill-rule:nonzero;stroke:#ffffff;stroke-width:2;stroke-linejoin:round;stroke-miterlimit:4;stroke-dasharray:none;marker:none;visibility:visible;display:inline;overflow:visible;enable-background:accumulate"
       d="m 2.25,11 0,-0.5 L 3.5,9 4.25,9 4.25,9.25 3.75,11 z"
       id="path2988"
       inkscape:connector-curvature="0"
       sodipodi:nodetypes="ccccccc" />
    <path
       sodipodi:nodetypes="ccccccc"
       inkscape:connector-curvature="0"
       id="path2990"
       d="m 9.75,11 0,-0.5 L 8.5,9 7.75,9 l 0,0.25 0.5,1.75 z"
       style="color:#000000;fill:#666677;fill-opacity:1;fill-rule:nonzero;stroke:#ffffff;stroke-width:2;stroke-linejoin:round;stroke-miterlimit:4;stroke-dasharray:none;marker:none;visibility:visible;display:inline;overflow:visible;enable-background:accumulate" />
  </g>
  <path
     inkscape:connector-curvature="0"
     style="color:#000000;fill:#666677;fill-opacity:1;fill-rule:nonzero;stroke:none;stroke-width:2;marker:none;visibility:visible;display:inline;overflow:visible;enable-background:accumulate"
     d="M 6,1 C 4.25,1 3.5,1.75 3,2.75 l 0,4.5 0.25,0.5 0.5,0.5 L 4.25,8.5 5,8.75 7,8.75 7.75,8.5 8.25,8.25 8.75,7.75 9,7.25 9,2.75 C 8.5,1.75 7.75,1 6,1 z M 5,2 7,2 7.5,2.25 8,3.25 7.5,3.75 7,4 5,4 4.5,3.75 4,3.25 l 0.5,-1 z"
     id="path24879"
     sodipodi:nodetypes="sccccccccccccsccccccccccc" />
  <path
     style="color:#000000;fill:#666677;fill-opacity:1;fill-rule:nonzero;stroke:none;stroke-width:2;marker:none;visibility:visible;display:inline;overflow:visible;enable-background:accumulate"
     d="M 2.5,11 2.5,10.5 3.75,9 4.5,9 4.5,9.25 3.75,11 z"
     id="path4060"
     inkscape:connector-curvature="0"
     sodipodi:nodetypes="ccccccc" />
  <path
     sodipodi:nodetypes="ccccccc"
     inkscape:connector-curvature="0"
     id="path4079"
     d="M 9.5,11 9.5,10.5 8.25,9 7.5,9 7.5,9.25 8.25,11 z"
     style="color:#000000;fill:#666677;fill-opacity:1;fill-rule:nonzero;stroke:none;stroke-width:2;marker:none;visibility:visible;display:inline;overflow:visible;enable-background:accumulate" />
  <path
     sodipodi:type="arc"
     style="color:#000000;fill:#ffffff;fill-opacity:1;fill-rule:evenodd;stroke:#ffffff;stroke-width:0.33333334;stroke-miterlimit:4;stroke-dasharray:none;marker:none;visibility:visible;display:inline;overflow:visible;enable-background:accumulate"
     id="path4083"
     sodipodi:cx="6"
     sodipodi:cy="6"
     sodipodi:rx="1"
     sodipodi:ry="1"
     d="M 7,6 A 1,1 0 1 1 5,6 1,1 0 1 1 7,6 z"
     transform="matrix(0.64285714,0,0,0.64285714,2.1428572,1.6428572)" />
</svg>
