<?xml version="1.0" encoding="UTF-8" standalone="no"?>
<!-- Created with Inkscape (http://www.inkscape.org/) -->

<svg
   xmlns:dc="http://purl.org/dc/elements/1.1/"
   xmlns:cc="http://creativecommons.org/ns#"
   xmlns:rdf="http://www.w3.org/1999/02/22-rdf-syntax-ns#"
   xmlns:svg="http://www.w3.org/2000/svg"
   xmlns="http://www.w3.org/2000/svg"
   xmlns:sodipodi="http://sodipodi.sourceforge.net/DTD/sodipodi-0.dtd"
   xmlns:inkscape="http://www.inkscape.org/namespaces/inkscape"
   version="1.1"
   width="18"
   height="18"
   id="svg3122"
   inkscape:version="0.48.4 r9939"
   sodipodi:docname="rail-18.svg">
  <sodipodi:namedview
     pagecolor="#ffffff"
     bordercolor="#666666"
     borderopacity="1"
     objecttolerance="10"
     gridtolerance="10"
     guidetolerance="10"
     inkscape:pageopacity="0"
     inkscape:pageshadow="2"
     inkscape:window-width="1052"
     inkscape:window-height="673"
     id="namedview5706"
     showgrid="true"
     borderlayer="true"
     inkscape:zoom="11.313708"
     inkscape:cx="-3.0649195"
     inkscape:cy="5.4953472"
     inkscape:window-x="0"
     inkscape:window-y="27"
     inkscape:window-maximized="0"
     inkscape:current-layer="svg3122"
     inkscape:snap-bbox="true"
     inkscape:object-paths="false">
    <inkscape:grid
       type="xygrid"
       id="grid5708"
       empspacing="5"
       visible="true"
       enabled="true"
       snapvisiblegridlinesonly="true" />
  </sodipodi:namedview>
  <defs
     id="defs3124" />
  <metadata
     id="metadata3127">
    <rdf:RDF>
      <cc:Work
         rdf:about="">
        <dc:format>image/svg+xml</dc:format>
        <dc:type
           rdf:resource="http://purl.org/dc/dcmitype/StillImage" />
        <dc:title />
      </cc:Work>
    </rdf:RDF>
  </metadata>
  <g
     transform="translate(0,-1034.3622)"
     id="layer1">
    <path
       sodipodi:nodetypes="sccccccccccccsccccccccccc"
       id="path3126"
       d="m 9.0000003,1036.4455 c -2.916668,0 -3.166667,1.25 -4.0000003,2.9167 l 0,5 0.25,1 0.75,1 1,0.75 1,0.25 2,0 1,-0.25 1,-0.75 0.75,-1 0.25,-1 0,-5 c -0.833333,-1.6667 -1.083333,-2.9167 -3.9999997,-2.9167 z M 8,1038.3622 l 2,0 1.5,0.5 0.5,1.5 -0.75,0.75 -1.25,0.25 -2,0 -1.25,-0.25 -0.75,-0.75 0.5,-1.5 z"
       style="color:#000000;fill:#666677;fill-opacity:1;fill-rule:nonzero;stroke:#ffffff;stroke-width:4;marker:none;visibility:visible;display:inline;overflow:visible;enable-background:accumulate;stroke-linejoin:round;stroke-miterlimit:4;stroke-dasharray:none"
       inkscape:connector-curvature="0" />
    <path
       sodipodi:nodetypes="ccccccc"
       inkscape:connector-curvature="0"
       id="path3128"
       d="m 4,1050.3622 0,-0.75 1.8750002,-1.75 1.1249998,0 0,0.375 -0.7499999,2.125 z"
       style="color:#000000;fill:#666677;fill-opacity:1;fill-rule:nonzero;stroke:#ffffff;stroke-width:4;marker:none;visibility:visible;display:inline;overflow:visible;enable-background:accumulate;stroke-linejoin:round;stroke-miterlimit:4;stroke-dasharray:none" />
    <path
       style="color:#000000;fill:#666677;fill-opacity:1;fill-rule:nonzero;stroke:#ffffff;stroke-width:4;marker:none;visibility:visible;display:inline;overflow:visible;enable-background:accumulate;stroke-linejoin:round;stroke-miterlimit:4;stroke-dasharray:none"
       d="m 14,1050.3622 0,-0.75 -1.875,-1.75 -1.125,0 0,0.375 0.75,2.125 z"
       id="path3130"
       inkscape:connector-curvature="0"
       sodipodi:nodetypes="ccccccc" />
    <rect
       width="18.000017"
       height="18.000031"
       x="-2.8881836e-06"
       y="1034.3622"
       id="rect24871"
       style="color:#000000;fill:#ffffff;fill-opacity:0;stroke:none;stroke-width:2;marker:none;visibility:visible;display:inline;overflow:visible;enable-background:accumulate" />
    <path
       inkscape:connector-curvature="0"
       style="color:#000000;fill:#666677;fill-opacity:1;fill-rule:nonzero;stroke:none;stroke-width:2;marker:none;visibility:visible;display:inline;overflow:visible;enable-background:accumulate"
       d="m 9.0000003,1036.4455 c -2.916668,0 -3.166667,1.25 -4.0000003,2.9167 l 0,5 0.25,1 0.75,1 1,0.75 1,0.25 2,0 1,-0.25 1,-0.75 0.75,-1 0.25,-1 0,-5 c -0.833333,-1.6667 -1.083333,-2.9167 -3.9999997,-2.9167 z M 8,1038.3622 l 2,0 1.5,0.5 0.5,1.5 -0.75,0.75 -1.25,0.25 -2,0 -1.25,-0.25 -0.75,-0.75 0.5,-1.5 z"
       id="path24879"
       sodipodi:nodetypes="sccccccccccccsccccccccccc" />
    <path
       style="color:#000000;fill:#666677;fill-opacity:1;fill-rule:nonzero;stroke:none;stroke-width:2;marker:none;visibility:visible;display:inline;overflow:visible;enable-background:accumulate"
       d="m 4,1050.3622 0,-0.75 1.8750002,-1.75 1.1249998,0 0,0.375 -0.7499999,2.125 z"
       id="path4060"
       inkscape:connector-curvature="0"
       sodipodi:nodetypes="ccccccc" />
    <path
       sodipodi:nodetypes="ccccccc"
       inkscape:connector-curvature="0"
       id="path4079"
       d="m 14,1050.3622 0,-0.75 -1.875,-1.75 -1.125,0 0,0.375 0.75,2.125 z"
       style="color:#000000;fill:#666677;fill-opacity:1;fill-rule:nonzero;stroke:none;stroke-width:2;marker:none;visibility:visible;display:inline;overflow:visible;enable-background:accumulate" />
    <path
       sodipodi:type="arc"
       style="color:#000000;fill:#ffffff;fill-opacity:1;fill-rule:evenodd;stroke:#ffffff;stroke-width:0.33333334;stroke-miterlimit:4;stroke-dasharray:none;marker:none;visibility:visible;display:inline;overflow:visible;enable-background:accumulate"
       id="path4083"
       sodipodi:cx="6"
       sodipodi:cy="6"
       sodipodi:rx="1"
       sodipodi:ry="1"
       d="M 7,6 A 1,1 0 1 1 5,6 1,1 0 1 1 7,6 z"
       transform="matrix(0.85714151,0,0,0.85714151,3.8571525,1038.2194)" />
  </g>
</svg>
