<?xml version="1.0" encoding="UTF-8" standalone="no"?>
<!-- Created with Inkscape (http://www.inkscape.org/) -->

<svg
   xmlns:dc="http://purl.org/dc/elements/1.1/"
   xmlns:cc="http://creativecommons.org/ns#"
   xmlns:rdf="http://www.w3.org/1999/02/22-rdf-syntax-ns#"
   xmlns:svg="http://www.w3.org/2000/svg"
   xmlns="http://www.w3.org/2000/svg"
   xmlns:sodipodi="http://sodipodi.sourceforge.net/DTD/sodipodi-0.dtd"
   xmlns:inkscape="http://www.inkscape.org/namespaces/inkscape"
   version="1.1"
   width="12"
   height="12"
   id="svg3122"
   inkscape:version="0.48.4 r9939"
   sodipodi:docname="subway-12.svg">
  <sodipodi:namedview
     pagecolor="#ffffff"
     bordercolor="#666666"
     borderopacity="1"
     objecttolerance="10"
     gridtolerance="10"
     guidetolerance="10"
     inkscape:pageopacity="0"
     inkscape:pageshadow="2"
     inkscape:window-width="1920"
     inkscape:window-height="1053"
     id="namedview6917"
     showgrid="true"
     inkscape:snap-bbox="true"
     inkscape:zoom="22.627417"
     inkscape:cx="13.111972"
     inkscape:cy="11.343818"
     inkscape:window-x="0"
     inkscape:window-y="-1"
     inkscape:window-maximized="1"
     inkscape:current-layer="svg3122">
    <inkscape:grid
       type="xygrid"
       id="grid9183"
       empspacing="5"
       visible="true"
       enabled="true"
       snapvisiblegridlinesonly="true" />
  </sodipodi:namedview>
  <defs
     id="defs3124" />
  <metadata
     id="metadata3127">
    <rdf:RDF>
      <cc:Work
         rdf:about="">
        <dc:format>image/svg+xml</dc:format>
        <dc:type
           rdf:resource="http://purl.org/dc/dcmitype/StillImage" />
        <dc:title />
      </cc:Work>
    </rdf:RDF>
  </metadata>
  <path
     id="path3854"
     d="M 6 1.5 C 4.25 1.5 2.5 2 2 3 L 2 8.75 L 2.25 9.25 L 2.75 9.75 L 3.25 10 L 8.75 10 L 9.25 9.75 L 9.75 9.25 L 10 8.75 L 10 3 C 9.5 2 7.75 1.5 6 1.5 z M 4 3 L 4.75 3 L 5 3.25 L 5 5.75 L 4.75 6 L 3.25 6 L 3 5.75 L 3 3.5 L 3.25 3.25 L 4 3 z M 5.5 3 L 6.5 3 L 6.75 3.25 L 6.75 5.75 L 6.5 6 L 5.5 6 L 5.25 5.75 L 5.25 3.25 L 5.5 3 z M 7.25 3 L 8 3 L 8.75 3.25 L 9 3.5 L 9 5.75 L 8.75 6 L 7.25 6 L 7 5.75 L 7 3.25 L 7.25 3 z M 4.375 7.75 C 4.720178 7.75 5 8.029822 5 8.375 C 5 8.720178 4.720178 9 4.375 9 C 4.029822 9 3.75 8.720178 3.75 8.375 C 3.75 8.029822 4.029822 7.75 4.375 7.75 z M 7.625 7.75 C 7.970178 7.75 8.25 8.029822 8.25 8.375 C 8.25 8.720178 7.970178 9 7.625 9 C 7.279822 9 7 8.720178 7 8.375 C 7 8.029822 7.279822 7.75 7.625 7.75 z "
     style="color:#000000;fill:#666677;fill-opacity:1;fill-rule:nonzero;stroke:#ffffff;stroke-width:2;marker:none;visibility:visible;display:inline;overflow:visible;enable-background:accumulate" />
  <path
     style="color:#000000;fill:#666677;fill-opacity:1;fill-rule:nonzero;stroke:none;stroke-width:2;marker:none;visibility:visible;display:inline;overflow:visible;enable-background:accumulate"
     d="M 6 1.5 C 4.25 1.5 2.5 2 2 3 L 2 8.75 L 2.25 9.25 L 2.75 9.75 L 3.25 10 L 8.75 10 L 9.25 9.75 L 9.75 9.25 L 10 8.75 L 10 3 C 9.5 2 7.75 1.5 6 1.5 z M 4 3 L 4.75 3 L 5 3.25 L 5 5.75 L 4.75 6 L 3.25 6 L 3 5.75 L 3 3.5 L 3.25 3.25 L 4 3 z M 5.5 3 L 6.5 3 L 6.75 3.25 L 6.75 5.75 L 6.5 6 L 5.5 6 L 5.25 5.75 L 5.25 3.25 L 5.5 3 z M 7.25 3 L 8 3 L 8.75 3.25 L 9 3.5 L 9 5.75 L 8.75 6 L 7.25 6 L 7 5.75 L 7 3.25 L 7.25 3 z M 4.375 7.75 C 4.720178 7.75 5 8.029822 5 8.375 C 5 8.720178 4.720178 9 4.375 9 C 4.029822 9 3.75 8.720178 3.75 8.375 C 3.75 8.029822 4.029822 7.75 4.375 7.75 z M 7.625 7.75 C 7.970178 7.75 8.25 8.029822 8.25 8.375 C 8.25 8.720178 7.970178 9 7.625 9 C 7.279822 9 7 8.720178 7 8.375 C 7 8.029822 7.279822 7.75 7.625 7.75 z "
     id="path24879" />
  <rect
     y="-1.7382812e-05"
     x="0"
     height="12.000007"
     width="11.999998"
     id="rect24881"
     style="opacity:0.5;color:#000000;fill:none;stroke:none;stroke-width:2;marker:none;visibility:visible;display:inline;overflow:visible;enable-background:accumulate" />
</svg>
