<?xml version="1.0" ?><!DOCTYPE svg  PUBLIC '-//W3C//DTD SVG 1.0//EN'  'http://www.w3.org/TR/2001/REC-SVG-20010904/DTD/svg10.dtd'><svg height="110px" style="enable-background:new 0 0 110 110;" version="1.0" viewBox="0 0 110 110" width="110px" xml:space="preserve" xmlns="http://www.w3.org/2000/svg" xmlns:xlink="http://www.w3.org/1999/xlink"><g id="Artboard"/><g id="Multicolor"><circle cx="55" cy="55" r="55" style="fill:#E04F5F;"/><g><path d="M73,81c0,3.314-2.686,6-6,6H43c-3.314,0-6-2.686-6-6V29c0-3.314,2.686-6,6-6h24    c3.314,0,6,2.686,6,6V81z" style="fill:#FFFFFF;"/><polygon points="39,35 39,65.872 55.171,35   " style="fill:#4AC3AF;"/><polygon points="39,74.491 39,75 68.24,75 47.208,58.822   " style="fill:#21B2D1;"/><polygon points="59.686,35 48.621,56.124 71,73.338 71,35   " style="fill:#FBE158;"/><circle cx="48" cy="30" r="1" style="fill:#B6BCBD;"/><path d="M63,30c0,0.552-0.448,1-1,1H52c-0.552,0-1-0.448-1-1s0.448-1,1-1h10C62.552,29,63,29.448,63,30z" style="fill:#B6BCBD;"/><circle cx="55" cy="81" r="4" style="fill:#CFD3D4;"/><rect height="4" style="fill:#FFFFFF;" width="4" x="53" y="79"/><polygon points="48.621,56.124 59.686,35 55.171,35 39,65.872 39,74.491 47.208,58.822 68.24,75 71,75     71,73.338   " style="fill:#F0F1F1;"/><path d="M68,46.5c0,3.59-6.5,15.6-6.5,15.6S55,50.09,55,46.5s2.91-6.5,6.5-6.5S68,42.91,68,46.5z" style="fill:#DF2C2C;"/><circle cx="61.5" cy="46.5" r="2.9" style="fill:#FFFFFF;"/></g></g></svg>