<?xml version="1.0" encoding="UTF-8" standalone="no"?>
<svg width="58px" height="844px" viewBox="0 0 58 844" version="1.1" xmlns="http://www.w3.org/2000/svg" xmlns:xlink="http://www.w3.org/1999/xlink" xmlns:sketch="http://www.bohemiancoding.com/sketch/ns">
    <!-- Generator: Sketch 3.2.2 (9983) - http://www.bohemiancoding.com/sketch -->
    <title>Ruler 2</title>
    <desc>Created with Sketch.</desc>
    <defs>
        <filter x="-50%" y="-50%" width="200%" height="200%" filterUnits="objectBoundingBox" id="filter-1">
            <feOffset dx="0" dy="4" in="SourceAlpha" result="shadowOffsetOuter1"></feOffset>
            <feGaussianBlur stdDeviation="6" in="shadowOffsetOuter1" result="shadowBlurOuter1"></feGaussianBlur>
            <feColorMatrix values="0 0 0 0 0   0 0 0 0 0   0 0 0 0 0  0 0 0 0.35 0" in="shadowBlurOuter1" type="matrix" result="shadowMatrixOuter1"></feColorMatrix>
            <feMerge>
                <feMergeNode in="shadowMatrixOuter1"></feMergeNode>
                <feMergeNode in="SourceGraphic"></feMergeNode>
            </feMerge>
        </filter>
        <filter x="-50%" y="-50%" width="200%" height="200%" filterUnits="objectBoundingBox" id="filter-2">
            <feOffset dx="0" dy="2" in="SourceAlpha" result="shadowOffsetOuter1"></feOffset>
            <feGaussianBlur stdDeviation="6" in="shadowOffsetOuter1" result="shadowBlurOuter1"></feGaussianBlur>
            <feColorMatrix values="0 0 0 0 0   0 0 0 0 0   0 0 0 0 0  0 0 0 0.35 0" in="shadowBlurOuter1" type="matrix" result="shadowMatrixOuter1"></feColorMatrix>
            <feMerge>
                <feMergeNode in="shadowMatrixOuter1"></feMergeNode>
                <feMergeNode in="SourceGraphic"></feMergeNode>
            </feMerge>
        </filter>
        <filter x="-50%" y="-50%" width="200%" height="200%" filterUnits="objectBoundingBox" id="filter-3">
            <feOffset dx="0" dy="2" in="SourceAlpha" result="shadowOffsetOuter1"></feOffset>
            <feGaussianBlur stdDeviation="6" in="shadowOffsetOuter1" result="shadowBlurOuter1"></feGaussianBlur>
            <feColorMatrix values="0 0 0 0 0   0 0 0 0 0   0 0 0 0 0  0 0 0 0.35 0" in="shadowBlurOuter1" type="matrix" result="shadowMatrixOuter1"></feColorMatrix>
            <feMerge>
                <feMergeNode in="shadowMatrixOuter1"></feMergeNode>
                <feMergeNode in="SourceGraphic"></feMergeNode>
            </feMerge>
        </filter>
        <filter x="-50%" y="-50%" width="200%" height="200%" filterUnits="objectBoundingBox" id="filter-4">
            <feOffset dx="0" dy="2" in="SourceAlpha" result="shadowOffsetOuter1"></feOffset>
            <feGaussianBlur stdDeviation="6" in="shadowOffsetOuter1" result="shadowBlurOuter1"></feGaussianBlur>
            <feColorMatrix values="0 0 0 0 0   0 0 0 0 0   0 0 0 0 0  0 0 0 0.35 0" in="shadowBlurOuter1" type="matrix" result="shadowMatrixOuter1"></feColorMatrix>
            <feMerge>
                <feMergeNode in="shadowMatrixOuter1"></feMergeNode>
                <feMergeNode in="SourceGraphic"></feMergeNode>
            </feMerge>
        </filter>
        <filter x="-50%" y="-50%" width="200%" height="200%" filterUnits="objectBoundingBox" id="filter-5">
            <feOffset dx="0" dy="2" in="SourceAlpha" result="shadowOffsetOuter1"></feOffset>
            <feGaussianBlur stdDeviation="6" in="shadowOffsetOuter1" result="shadowBlurOuter1"></feGaussianBlur>
            <feColorMatrix values="0 0 0 0 0   0 0 0 0 0   0 0 0 0 0  0 0 0 0.35 0" in="shadowBlurOuter1" type="matrix" result="shadowMatrixOuter1"></feColorMatrix>
            <feMerge>
                <feMergeNode in="shadowMatrixOuter1"></feMergeNode>
                <feMergeNode in="SourceGraphic"></feMergeNode>
            </feMerge>
        </filter>
        <filter x="-50%" y="-50%" width="200%" height="200%" filterUnits="objectBoundingBox" id="filter-6">
            <feOffset dx="0" dy="1" in="SourceAlpha" result="shadowOffsetInner1"></feOffset>
            <feGaussianBlur stdDeviation="1.5" in="shadowOffsetInner1" result="shadowBlurInner1"></feGaussianBlur>
            <feComposite in="shadowBlurInner1" in2="SourceAlpha" operator="arithmetic" k2="-1" k3="1" result="shadowInnerInner1"></feComposite>
            <feColorMatrix values="0 0 0 0 0   0 0 0 0 0   0 0 0 0 0  0 0 0 0.35 0" in="shadowInnerInner1" type="matrix" result="shadowMatrixInner1"></feColorMatrix>
            <feMerge>
                <feMergeNode in="SourceGraphic"></feMergeNode>
                <feMergeNode in="shadowMatrixInner1"></feMergeNode>
            </feMerge>
        </filter>
        <filter x="-50%" y="-50%" width="200%" height="200%" filterUnits="objectBoundingBox" id="filter-7">
            <feOffset dx="0" dy="1" in="SourceAlpha" result="shadowOffsetInner1"></feOffset>
            <feGaussianBlur stdDeviation="1.5" in="shadowOffsetInner1" result="shadowBlurInner1"></feGaussianBlur>
            <feComposite in="shadowBlurInner1" in2="SourceAlpha" operator="arithmetic" k2="-1" k3="1" result="shadowInnerInner1"></feComposite>
            <feColorMatrix values="0 0 0 0 0   0 0 0 0 0   0 0 0 0 0  0 0 0 0.35 0" in="shadowInnerInner1" type="matrix" result="shadowMatrixInner1"></feColorMatrix>
            <feMerge>
                <feMergeNode in="SourceGraphic"></feMergeNode>
                <feMergeNode in="shadowMatrixInner1"></feMergeNode>
            </feMerge>
        </filter>
        <filter x="-50%" y="-50%" width="200%" height="200%" filterUnits="objectBoundingBox" id="filter-8">
            <feOffset dx="0" dy="1" in="SourceAlpha" result="shadowOffsetInner1"></feOffset>
            <feGaussianBlur stdDeviation="1.5" in="shadowOffsetInner1" result="shadowBlurInner1"></feGaussianBlur>
            <feComposite in="shadowBlurInner1" in2="SourceAlpha" operator="arithmetic" k2="-1" k3="1" result="shadowInnerInner1"></feComposite>
            <feColorMatrix values="0 0 0 0 0   0 0 0 0 0   0 0 0 0 0  0 0 0 0.35 0" in="shadowInnerInner1" type="matrix" result="shadowMatrixInner1"></feColorMatrix>
            <feMerge>
                <feMergeNode in="SourceGraphic"></feMergeNode>
                <feMergeNode in="shadowMatrixInner1"></feMergeNode>
            </feMerge>
        </filter>
        <filter x="-50%" y="-50%" width="200%" height="200%" filterUnits="objectBoundingBox" id="filter-9">
            <feOffset dx="0" dy="1" in="SourceAlpha" result="shadowOffsetInner1"></feOffset>
            <feGaussianBlur stdDeviation="1.5" in="shadowOffsetInner1" result="shadowBlurInner1"></feGaussianBlur>
            <feComposite in="shadowBlurInner1" in2="SourceAlpha" operator="arithmetic" k2="-1" k3="1" result="shadowInnerInner1"></feComposite>
            <feColorMatrix values="0 0 0 0 0   0 0 0 0 0   0 0 0 0 0  0 0 0 0.35 0" in="shadowInnerInner1" type="matrix" result="shadowMatrixInner1"></feColorMatrix>
            <feMerge>
                <feMergeNode in="SourceGraphic"></feMergeNode>
                <feMergeNode in="shadowMatrixInner1"></feMergeNode>
            </feMerge>
        </filter>
        <filter x="-50%" y="-50%" width="200%" height="200%" filterUnits="objectBoundingBox" id="filter-10">
            <feOffset dx="0" dy="1" in="SourceAlpha" result="shadowOffsetInner1"></feOffset>
            <feGaussianBlur stdDeviation="1.5" in="shadowOffsetInner1" result="shadowBlurInner1"></feGaussianBlur>
            <feComposite in="shadowBlurInner1" in2="SourceAlpha" operator="arithmetic" k2="-1" k3="1" result="shadowInnerInner1"></feComposite>
            <feColorMatrix values="0 0 0 0 0   0 0 0 0 0   0 0 0 0 0  0 0 0 0.35 0" in="shadowInnerInner1" type="matrix" result="shadowMatrixInner1"></feColorMatrix>
            <feMerge>
                <feMergeNode in="SourceGraphic"></feMergeNode>
                <feMergeNode in="shadowMatrixInner1"></feMergeNode>
            </feMerge>
        </filter>
        <filter x="-50%" y="-50%" width="200%" height="200%" filterUnits="objectBoundingBox" id="filter-11">
            <feOffset dx="0" dy="1" in="SourceAlpha" result="shadowOffsetInner1"></feOffset>
            <feGaussianBlur stdDeviation="1.5" in="shadowOffsetInner1" result="shadowBlurInner1"></feGaussianBlur>
            <feComposite in="shadowBlurInner1" in2="SourceAlpha" operator="arithmetic" k2="-1" k3="1" result="shadowInnerInner1"></feComposite>
            <feColorMatrix values="0 0 0 0 0   0 0 0 0 0   0 0 0 0 0  0 0 0 0.35 0" in="shadowInnerInner1" type="matrix" result="shadowMatrixInner1"></feColorMatrix>
            <feMerge>
                <feMergeNode in="SourceGraphic"></feMergeNode>
                <feMergeNode in="shadowMatrixInner1"></feMergeNode>
            </feMerge>
        </filter>
        <filter x="-50%" y="-50%" width="200%" height="200%" filterUnits="objectBoundingBox" id="filter-12">
            <feOffset dx="0" dy="1" in="SourceAlpha" result="shadowOffsetInner1"></feOffset>
            <feGaussianBlur stdDeviation="1.5" in="shadowOffsetInner1" result="shadowBlurInner1"></feGaussianBlur>
            <feComposite in="shadowBlurInner1" in2="SourceAlpha" operator="arithmetic" k2="-1" k3="1" result="shadowInnerInner1"></feComposite>
            <feColorMatrix values="0 0 0 0 0   0 0 0 0 0   0 0 0 0 0  0 0 0 0.35 0" in="shadowInnerInner1" type="matrix" result="shadowMatrixInner1"></feColorMatrix>
            <feMerge>
                <feMergeNode in="SourceGraphic"></feMergeNode>
                <feMergeNode in="shadowMatrixInner1"></feMergeNode>
            </feMerge>
        </filter>
        <filter x="-50%" y="-50%" width="200%" height="200%" filterUnits="objectBoundingBox" id="filter-13">
            <feOffset dx="0" dy="1" in="SourceAlpha" result="shadowOffsetInner1"></feOffset>
            <feGaussianBlur stdDeviation="1.5" in="shadowOffsetInner1" result="shadowBlurInner1"></feGaussianBlur>
            <feComposite in="shadowBlurInner1" in2="SourceAlpha" operator="arithmetic" k2="-1" k3="1" result="shadowInnerInner1"></feComposite>
            <feColorMatrix values="0 0 0 0 0   0 0 0 0 0   0 0 0 0 0  0 0 0 0.35 0" in="shadowInnerInner1" type="matrix" result="shadowMatrixInner1"></feColorMatrix>
            <feMerge>
                <feMergeNode in="SourceGraphic"></feMergeNode>
                <feMergeNode in="shadowMatrixInner1"></feMergeNode>
            </feMerge>
        </filter>
        <filter x="-50%" y="-50%" width="200%" height="200%" filterUnits="objectBoundingBox" id="filter-14">
            <feOffset dx="0" dy="1" in="SourceAlpha" result="shadowOffsetInner1"></feOffset>
            <feGaussianBlur stdDeviation="1.5" in="shadowOffsetInner1" result="shadowBlurInner1"></feGaussianBlur>
            <feComposite in="shadowBlurInner1" in2="SourceAlpha" operator="arithmetic" k2="-1" k3="1" result="shadowInnerInner1"></feComposite>
            <feColorMatrix values="0 0 0 0 0   0 0 0 0 0   0 0 0 0 0  0 0 0 0.35 0" in="shadowInnerInner1" type="matrix" result="shadowMatrixInner1"></feColorMatrix>
            <feMerge>
                <feMergeNode in="SourceGraphic"></feMergeNode>
                <feMergeNode in="shadowMatrixInner1"></feMergeNode>
            </feMerge>
        </filter>
        <filter x="-50%" y="-50%" width="200%" height="200%" filterUnits="objectBoundingBox" id="filter-15">
            <feOffset dx="0" dy="1" in="SourceAlpha" result="shadowOffsetInner1"></feOffset>
            <feGaussianBlur stdDeviation="1.5" in="shadowOffsetInner1" result="shadowBlurInner1"></feGaussianBlur>
            <feComposite in="shadowBlurInner1" in2="SourceAlpha" operator="arithmetic" k2="-1" k3="1" result="shadowInnerInner1"></feComposite>
            <feColorMatrix values="0 0 0 0 0   0 0 0 0 0   0 0 0 0 0  0 0 0 0.35 0" in="shadowInnerInner1" type="matrix" result="shadowMatrixInner1"></feColorMatrix>
            <feMerge>
                <feMergeNode in="SourceGraphic"></feMergeNode>
                <feMergeNode in="shadowMatrixInner1"></feMergeNode>
            </feMerge>
        </filter>
        <filter x="-50%" y="-50%" width="200%" height="200%" filterUnits="objectBoundingBox" id="filter-16">
            <feOffset dx="0" dy="1" in="SourceAlpha" result="shadowOffsetInner1"></feOffset>
            <feGaussianBlur stdDeviation="1.5" in="shadowOffsetInner1" result="shadowBlurInner1"></feGaussianBlur>
            <feComposite in="shadowBlurInner1" in2="SourceAlpha" operator="arithmetic" k2="-1" k3="1" result="shadowInnerInner1"></feComposite>
            <feColorMatrix values="0 0 0 0 0   0 0 0 0 0   0 0 0 0 0  0 0 0 0.35 0" in="shadowInnerInner1" type="matrix" result="shadowMatrixInner1"></feColorMatrix>
            <feMerge>
                <feMergeNode in="SourceGraphic"></feMergeNode>
                <feMergeNode in="shadowMatrixInner1"></feMergeNode>
            </feMerge>
        </filter>
    </defs>
    <g id="Page-1" stroke="none" stroke-width="1" fill="none" fill-rule="evenodd" sketch:type="MSPage">
        <g id="Main" sketch:type="MSLayerGroup" transform="translate(-623.000000, -292.000000)">
            <g id="Ruler-2" transform="translate(649.203613, 710.000000) scale(-1, 1) translate(-649.203613, -710.000000) translate(628.203613, 299.000000)" sketch:type="MSShapeGroup">
                <rect id="BkgdRuler" fill="#B8CA96" filter="url(#filter-1)" x="0.776" y="0.25" width="35" height="821.054227" rx="15"></rect>
                <g id="Sun" transform="translate(3.000000, 17.000000)" stroke="#FFFFFF" stroke-width="1.8">
                    <path d="M15.354823,22.8104839 C14.2862692,22.8104839 13.2832551,22.608873 12.3457504,22.2056452 C11.4082457,21.8024173 10.5866813,21.2530277 9.88103264,20.5574597 C9.17538395,19.8618917 8.62095401,19.0403273 8.21772618,18.0927419 C7.81449836,17.1451566 7.61288747,16.1371021 7.61288747,15.0685484 C7.61288747,13.9999947 7.81449836,12.9969805 8.21772618,12.0594758 C8.62095401,11.1219711 9.17538395,10.3004068 9.88103264,9.59475806 C10.5866813,8.88910937 11.4082457,8.33467944 12.3457504,7.93145161 C13.2832551,7.52822379 14.2862692,7.3266129 15.354823,7.3266129 C16.4233767,7.3266129 17.4263909,7.52822379 18.3638955,7.93145161 C19.3014002,8.33467944 20.1229646,8.88910937 20.8286133,9.59475806 C21.534262,10.3004068 22.0886919,11.1219711 22.4919197,12.0594758 C22.8951476,12.9969805 23.0967584,13.9999947 23.0967584,15.0685484 C23.0967584,16.1371021 22.8951476,17.1451566 22.4919197,18.0927419 C22.0886919,19.0403273 21.534262,19.8618917 20.8286133,20.5574597 C20.1229646,21.2530277 19.3014002,21.8024173 18.3638955,22.2056452 C17.4263909,22.608873 16.4233767,22.8104839 15.354823,22.8104839 L15.354823,22.8104839 Z M15.354823,8.29435484 C14.427399,8.29435484 13.5503916,8.47076436 12.7237746,8.82358871 C11.8971575,9.17641305 11.1763986,9.66027918 10.5614762,10.2752016 C9.94655376,10.890124 9.46268763,11.610883 9.10986328,12.4375 C8.75703894,13.264117 8.58062941,14.1411244 8.58062941,15.0685484 C8.58062941,16.0161338 8.75703894,16.8981814 9.10986328,17.7147177 C9.46268763,18.5312541 9.94655376,19.2469727 10.5614762,19.8618952 C11.1763986,20.4768176 11.8971575,20.9606837 12.7237746,21.3135081 C13.5503916,21.6663324 14.427399,21.8427419 15.354823,21.8427419 C16.282247,21.8427419 17.1592543,21.6663324 17.9858713,21.3135081 C18.8124884,20.9606837 19.5332473,20.4768176 20.1481697,19.8618952 C20.7630922,19.2469727 21.2469583,18.5312541 21.5997826,17.7147177 C21.952607,16.8981814 22.1290165,16.0161338 22.1290165,15.0685484 C22.1290165,14.1411244 21.952607,13.264117 21.5997826,12.4375 C21.2469583,11.610883 20.7630922,10.890124 20.1481697,10.2752016 C19.5332473,9.66027918 18.8124884,9.17641305 17.9858713,8.82358871 C17.1592543,8.47076436 16.282247,8.29435484 15.354823,8.29435484 L15.354823,8.29435484 Z M14.7197423,5.08870968 C14.3971601,5.08870968 14.2358713,4.92742097 14.2358713,4.60483871 L14.2358713,0.733870968 C14.2358713,0.41128871 14.3971601,0.25 14.7197423,0.25 C15.0423246,0.25 15.2036133,0.41128871 15.2036133,0.733870968 L15.2036133,4.60483871 C15.2036133,4.92742097 15.0423246,5.08870968 14.7197423,5.08870968 L14.7197423,5.08870968 Z M15.2036133,29.766129 C15.2036133,30.0887113 15.0423246,30.25 14.7197423,30.25 C14.3971601,30.25 14.2358713,30.0887113 14.2358713,29.766129 L14.2358713,25.8951613 C14.2358713,25.572579 14.3971601,25.4112903 14.7197423,25.4112903 C15.0423246,25.4112903 15.2036133,25.572579 15.2036133,25.8951613 L15.2036133,29.766129 Z M5.04232296,15.733871 C5.04232296,16.0564532 4.88103425,16.2177419 4.55845199,16.2177419 L0.687484249,16.2177419 C0.364901991,16.2177419 0.203613281,16.0564532 0.203613281,15.733871 C0.203613281,15.4112887 0.364901991,15.25 0.687484249,15.25 L4.55845199,15.25 C4.88103425,15.25 5.04232296,15.4112887 5.04232296,15.733871 L5.04232296,15.733871 Z M29.7197423,15.25 C30.0423246,15.25 30.2036133,15.4112887 30.2036133,15.733871 C30.2036133,16.0564532 30.0423246,16.2177419 29.7197423,16.2177419 L25.8487746,16.2177419 C25.5261923,16.2177419 25.3649036,16.0564532 25.3649036,15.733871 C25.3649036,15.4112887 25.5261923,15.25 25.8487746,15.25 L29.7197423,15.25 Z M5.5866778,25.6834677 C5.48587084,25.7842747 5.37498485,25.8346774 5.25401651,25.8346774 C5.13304816,25.8346774 5.02216217,25.7842747 4.92135522,25.6834677 C4.67941852,25.4616924 4.67941852,25.2298399 4.92135522,24.9879032 L7.64312941,22.266129 C7.74393637,22.1653221 7.85986263,22.1149194 7.99091167,22.1149194 C8.12196071,22.1149194 8.23788697,22.1653221 8.33869393,22.266129 C8.56046923,22.4879043 8.56046923,22.7197569 8.33869393,22.9616935 L5.5866778,25.6834677 Z M23.0362746,8.02217742 C22.8951448,8.02217742 22.7842588,7.98185524 22.7036133,7.90120968 C22.6028063,7.80040272 22.5524036,7.68447646 22.5524036,7.55342742 C22.5524036,7.42237838 22.6028063,7.30645212 22.7036133,7.20564516 L25.4253875,4.48387097 C25.6673242,4.24193427 25.8991767,4.24193427 26.120952,4.48387097 C26.3427273,4.70564627 26.3427273,4.92741825 26.120952,5.14919355 L23.3991778,7.90120968 C23.2983708,7.98185524 23.1774043,8.02217742 23.0362746,8.02217742 L23.0362746,8.02217742 Z M26.120952,24.9879032 C26.3427273,25.2298399 26.3427273,25.4616924 26.120952,25.6834677 C26.020145,25.7842747 25.909259,25.8346774 25.7882907,25.8346774 C25.6874837,25.8346774 25.5665172,25.7842747 25.4253875,25.6834677 L22.7036133,22.9616935 C22.6028063,22.8608866 22.5524036,22.7449603 22.5524036,22.6139113 C22.5524036,22.4828622 22.6028063,22.366936 22.7036133,22.266129 C22.9253886,22.0443537 23.1572411,22.0443537 23.3991778,22.266129 L26.120952,24.9879032 Z M4.92135522,5.14919355 C4.82054826,5.04838659 4.77014554,4.9375006 4.77014554,4.81653226 C4.77014554,4.69556391 4.82054826,4.58467792 4.92135522,4.48387097 C5.02216217,4.38306401 5.13304816,4.33266129 5.25401651,4.33266129 C5.37498485,4.33266129 5.48587084,4.38306401 5.5866778,4.48387097 L8.33869393,7.20564516 C8.43950088,7.30645212 8.4899036,7.42237838 8.4899036,7.55342742 C8.4899036,7.68447646 8.43950088,7.80040272 8.33869393,7.90120968 C8.25804836,7.98185524 8.14716237,8.02217742 8.00603264,8.02217742 C7.84474151,8.02217742 7.72377497,7.98185524 7.64312941,7.90120968 L4.92135522,5.14919355 Z" id="A" fill="#FFFFFF" filter="url(#filter-2)"></path>
                    <path d="M15.9548214,515.16049 C14.8862677,515.16049 13.8832535,514.958879 12.9457489,514.555651 C12.0082442,514.152423 11.1866798,513.603034 10.4810311,512.907466 C9.77538242,512.211898 9.22095248,511.390333 8.81772466,510.442748 C8.41449684,509.495163 8.21288595,508.487108 8.21288595,507.418554 C8.21288595,506.350001 8.41449684,505.346987 8.81772466,504.409482 C9.22095248,503.471977 9.77538242,502.650413 10.4810311,501.944764 C11.1866798,501.239115 12.0082442,500.684686 12.9457489,500.281458 C13.8832535,499.87823 14.8862677,499.676619 15.9548214,499.676619 C17.0233752,499.676619 18.0263893,499.87823 18.963894,500.281458 C19.9013987,500.684686 20.7229631,501.239115 21.4286118,501.944764 C22.1342604,502.650413 22.6886904,503.471977 23.0919182,504.409482 C23.495146,505.346987 23.6967569,506.350001 23.6967569,507.418554 C23.6967569,508.487108 23.495146,509.495163 23.0919182,510.442748 C22.6886904,511.390333 22.1342604,512.211898 21.4286118,512.907466 C20.7229631,513.603034 19.9013987,514.152423 18.963894,514.555651 C18.0263893,514.958879 17.0233752,515.16049 15.9548214,515.16049 L15.9548214,515.16049 Z M15.9548214,500.644361 C15.0273974,500.644361 14.1503901,500.82077 13.323773,501.173595 C12.497156,501.526419 11.7763971,502.010285 11.1614747,502.625208 C10.5465522,503.24013 10.0626861,503.960889 9.70986176,504.787506 C9.35703741,505.614123 9.18062788,506.49113 9.18062788,507.418554 C9.18062788,508.36614 9.35703741,509.248188 9.70986176,510.064724 C10.0626861,510.88126 10.5465522,511.596979 11.1614747,512.211901 C11.7763971,512.826824 12.497156,513.31069 13.323773,513.663514 C14.1503901,514.016339 15.0273974,514.192748 15.9548214,514.192748 C16.8822454,514.192748 17.7592528,514.016339 18.5858698,513.663514 C19.4124869,513.31069 20.1332458,512.826824 20.7481682,512.211901 C21.3630906,511.596979 21.8469568,510.88126 22.1997811,510.064724 C22.5526055,509.248188 22.729015,508.36614 22.729015,507.418554 C22.729015,506.49113 22.5526055,505.614123 22.1997811,504.787506 C21.8469568,503.960889 21.3630906,503.24013 20.7481682,502.625208 C20.1332458,502.010285 19.4124869,501.526419 18.5858698,501.173595 C17.7592528,500.82077 16.8822454,500.644361 15.9548214,500.644361 L15.9548214,500.644361 Z M15.3197408,497.438716 C14.9971585,497.438716 14.8358698,497.277427 14.8358698,496.954845 L14.8358698,493.083877 C14.8358698,492.761295 14.9971585,492.600006 15.3197408,492.600006 C15.642323,492.600006 15.8036118,492.761295 15.8036118,493.083877 L15.8036118,496.954845 C15.8036118,497.277427 15.642323,497.438716 15.3197408,497.438716 L15.3197408,497.438716 Z M15.8036118,522.116135 C15.8036118,522.438717 15.642323,522.600006 15.3197408,522.600006 C14.9971585,522.600006 14.8358698,522.438717 14.8358698,522.116135 L14.8358698,518.245167 C14.8358698,517.922585 14.9971585,517.761296 15.3197408,517.761296 C15.642323,517.761296 15.8036118,517.922585 15.8036118,518.245167 L15.8036118,522.116135 Z M5.64232143,508.083877 C5.64232143,508.406459 5.48103272,508.567748 5.15845047,508.567748 L1.28748272,508.567748 C0.964900465,508.567748 0.803611755,508.406459 0.803611755,508.083877 C0.803611755,507.761295 0.964900465,507.600006 1.28748272,507.600006 L5.15845047,507.600006 C5.48103272,507.600006 5.64232143,507.761295 5.64232143,508.083877 L5.64232143,508.083877 Z M30.3197408,507.600006 C30.642323,507.600006 30.8036118,507.761295 30.8036118,508.083877 C30.8036118,508.406459 30.642323,508.567748 30.3197408,508.567748 L26.448773,508.567748 C26.1261908,508.567748 25.9649021,508.406459 25.9649021,508.083877 C25.9649021,507.761295 26.1261908,507.600006 26.448773,507.600006 L30.3197408,507.600006 Z M6.18667627,518.033474 C6.08586932,518.134281 5.97498333,518.184684 5.85401498,518.184684 C5.73304663,518.184684 5.62216065,518.134281 5.52135369,518.033474 C5.279417,517.811699 5.279417,517.579846 5.52135369,517.337909 L8.24312788,514.616135 C8.34393484,514.515328 8.4598611,514.464925 8.59091014,514.464925 C8.72195918,514.464925 8.83788544,514.515328 8.9386924,514.616135 C9.1604677,514.83791 9.1604677,515.069763 8.9386924,515.3117 L6.18667627,518.033474 Z M23.636273,500.372184 C23.4951433,500.372184 23.3842573,500.331861 23.3036118,500.251216 C23.2028048,500.150409 23.1524021,500.034483 23.1524021,499.903434 C23.1524021,499.772384 23.2028048,499.656458 23.3036118,499.555651 L26.0253859,496.833877 C26.2673226,496.59194 26.4991752,496.59194 26.7209505,496.833877 C26.9427258,497.055652 26.9427258,497.277424 26.7209505,497.4992 L23.9991763,500.251216 C23.8983693,500.331861 23.7774028,500.372184 23.636273,500.372184 L23.636273,500.372184 Z M26.7209505,517.337909 C26.9427258,517.579846 26.9427258,517.811699 26.7209505,518.033474 C26.6201435,518.134281 26.5092575,518.184684 26.3882892,518.184684 C26.2874822,518.184684 26.1665157,518.134281 26.0253859,518.033474 L23.3036118,515.3117 C23.2028048,515.210893 23.1524021,515.094966 23.1524021,514.963917 C23.1524021,514.832868 23.2028048,514.716942 23.3036118,514.616135 C23.5253871,514.39436 23.7572396,514.39436 23.9991763,514.616135 L26.7209505,517.337909 Z M5.52135369,497.4992 C5.42054674,497.398393 5.37014401,497.287507 5.37014401,497.166538 C5.37014401,497.04557 5.42054674,496.934684 5.52135369,496.833877 C5.62216065,496.73307 5.73304663,496.682667 5.85401498,496.682667 C5.97498333,496.682667 6.08586932,496.73307 6.18667627,496.833877 L8.9386924,499.555651 C9.03949936,499.656458 9.08990208,499.772384 9.08990208,499.903434 C9.08990208,500.034483 9.03949936,500.150409 8.9386924,500.251216 C8.85804684,500.331861 8.74716085,500.372184 8.60603111,500.372184 C8.44473998,500.372184 8.32377345,500.331861 8.24312788,500.251216 L5.52135369,497.4992 Z" id="A-4" fill="#FFFFFF" filter="url(#filter-3)"></path>
                    <path d="M15.354823,639.560484 C14.2862692,639.560484 13.2832551,639.358873 12.3457504,638.955645 C11.4082457,638.552417 10.5866813,638.003028 9.88103264,637.30746 C9.17538395,636.611892 8.62095401,635.790327 8.21772618,634.842742 C7.81449836,633.895157 7.61288747,632.887102 7.61288747,631.818548 C7.61288747,630.749995 7.81449836,629.74698 8.21772618,628.809476 C8.62095401,627.871971 9.17538395,627.050407 9.88103264,626.344758 C10.5866813,625.639109 11.4082457,625.084679 12.3457504,624.681452 C13.2832551,624.278224 14.2862692,624.076613 15.354823,624.076613 C16.4233767,624.076613 17.4263909,624.278224 18.3638955,624.681452 C19.3014002,625.084679 20.1229646,625.639109 20.8286133,626.344758 C21.534262,627.050407 22.0886919,627.871971 22.4919197,628.809476 C22.8951476,629.74698 23.0967584,630.749995 23.0967584,631.818548 C23.0967584,632.887102 22.8951476,633.895157 22.4919197,634.842742 C22.0886919,635.790327 21.534262,636.611892 20.8286133,637.30746 C20.1229646,638.003028 19.3014002,638.552417 18.3638955,638.955645 C17.4263909,639.358873 16.4233767,639.560484 15.354823,639.560484 L15.354823,639.560484 Z M15.354823,625.044355 C14.427399,625.044355 13.5503916,625.220764 12.7237746,625.573589 C11.8971575,625.926413 11.1763986,626.410279 10.5614762,627.025202 C9.94655376,627.640124 9.46268763,628.360883 9.10986328,629.1875 C8.75703894,630.014117 8.58062941,630.891124 8.58062941,631.818548 C8.58062941,632.766134 8.75703894,633.648181 9.10986328,634.464718 C9.46268763,635.281254 9.94655376,635.996973 10.5614762,636.611895 C11.1763986,637.226818 11.8971575,637.710684 12.7237746,638.063508 C13.5503916,638.416332 14.427399,638.592742 15.354823,638.592742 C16.282247,638.592742 17.1592543,638.416332 17.9858713,638.063508 C18.8124884,637.710684 19.5332473,637.226818 20.1481697,636.611895 C20.7630922,635.996973 21.2469583,635.281254 21.5997826,634.464718 C21.952607,633.648181 22.1290165,632.766134 22.1290165,631.818548 C22.1290165,630.891124 21.952607,630.014117 21.5997826,629.1875 C21.2469583,628.360883 20.7630922,627.640124 20.1481697,627.025202 C19.5332473,626.410279 18.8124884,625.926413 17.9858713,625.573589 C17.1592543,625.220764 16.282247,625.044355 15.354823,625.044355 L15.354823,625.044355 Z M14.7197423,621.83871 C14.3971601,621.83871 14.2358713,621.677421 14.2358713,621.354839 L14.2358713,617.483871 C14.2358713,617.161289 14.3971601,617 14.7197423,617 C15.0423246,617 15.2036133,617.161289 15.2036133,617.483871 L15.2036133,621.354839 C15.2036133,621.677421 15.0423246,621.83871 14.7197423,621.83871 L14.7197423,621.83871 Z M15.2036133,646.516129 C15.2036133,646.838711 15.0423246,647 14.7197423,647 C14.3971601,647 14.2358713,646.838711 14.2358713,646.516129 L14.2358713,642.645161 C14.2358713,642.322579 14.3971601,642.16129 14.7197423,642.16129 C15.0423246,642.16129 15.2036133,642.322579 15.2036133,642.645161 L15.2036133,646.516129 Z M5.04232296,632.483871 C5.04232296,632.806453 4.88103425,632.967742 4.55845199,632.967742 L0.687484249,632.967742 C0.364901991,632.967742 0.203613281,632.806453 0.203613281,632.483871 C0.203613281,632.161289 0.364901991,632 0.687484249,632 L4.55845199,632 C4.88103425,632 5.04232296,632.161289 5.04232296,632.483871 L5.04232296,632.483871 Z M29.7197423,632 C30.0423246,632 30.2036133,632.161289 30.2036133,632.483871 C30.2036133,632.806453 30.0423246,632.967742 29.7197423,632.967742 L25.8487746,632.967742 C25.5261923,632.967742 25.3649036,632.806453 25.3649036,632.483871 C25.3649036,632.161289 25.5261923,632 25.8487746,632 L29.7197423,632 Z M5.5866778,642.433468 C5.48587084,642.534275 5.37498485,642.584677 5.25401651,642.584677 C5.13304816,642.584677 5.02216217,642.534275 4.92135522,642.433468 C4.67941852,642.211692 4.67941852,641.97984 4.92135522,641.737903 L7.64312941,639.016129 C7.74393637,638.915322 7.85986263,638.864919 7.99091167,638.864919 C8.12196071,638.864919 8.23788697,638.915322 8.33869393,639.016129 C8.56046923,639.237904 8.56046923,639.469757 8.33869393,639.711694 L5.5866778,642.433468 Z M23.0362746,624.772177 C22.8951448,624.772177 22.7842588,624.731855 22.7036133,624.65121 C22.6028063,624.550403 22.5524036,624.434476 22.5524036,624.303427 C22.5524036,624.172378 22.6028063,624.056452 22.7036133,623.955645 L25.4253875,621.233871 C25.6673242,620.991934 25.8991767,620.991934 26.120952,621.233871 C26.3427273,621.455646 26.3427273,621.677418 26.120952,621.899194 L23.3991778,624.65121 C23.2983708,624.731855 23.1774043,624.772177 23.0362746,624.772177 L23.0362746,624.772177 Z M26.120952,641.737903 C26.3427273,641.97984 26.3427273,642.211692 26.120952,642.433468 C26.020145,642.534275 25.909259,642.584677 25.7882907,642.584677 C25.6874837,642.584677 25.5665172,642.534275 25.4253875,642.433468 L22.7036133,639.711694 C22.6028063,639.610887 22.5524036,639.49496 22.5524036,639.363911 C22.5524036,639.232862 22.6028063,639.116936 22.7036133,639.016129 C22.9253886,638.794354 23.1572411,638.794354 23.3991778,639.016129 L26.120952,641.737903 Z M4.92135522,621.899194 C4.82054826,621.798387 4.77014554,621.687501 4.77014554,621.566532 C4.77014554,621.445564 4.82054826,621.334678 4.92135522,621.233871 C5.02216217,621.133064 5.13304816,621.082661 5.25401651,621.082661 C5.37498485,621.082661 5.48587084,621.133064 5.5866778,621.233871 L8.33869393,623.955645 C8.43950088,624.056452 8.4899036,624.172378 8.4899036,624.303427 C8.4899036,624.434476 8.43950088,624.550403 8.33869393,624.65121 C8.25804836,624.731855 8.14716237,624.772177 8.00603264,624.772177 C7.84474151,624.772177 7.72377497,624.731855 7.64312941,624.65121 L4.92135522,621.899194 Z" id="A-2" fill="#4A4A4A" filter="url(#filter-4)"></path>
                    <path d="M15.354823,765.560484 C14.2862692,765.560484 13.2832551,765.358873 12.3457504,764.955645 C11.4082457,764.552417 10.5866813,764.003028 9.88103264,763.30746 C9.17538395,762.611892 8.62095401,761.790327 8.21772618,760.842742 C7.81449836,759.895157 7.61288747,758.887102 7.61288747,757.818548 C7.61288747,756.749995 7.81449836,755.74698 8.21772618,754.809476 C8.62095401,753.871971 9.17538395,753.050407 9.88103264,752.344758 C10.5866813,751.639109 11.4082457,751.084679 12.3457504,750.681452 C13.2832551,750.278224 14.2862692,750.076613 15.354823,750.076613 C16.4233767,750.076613 17.4263909,750.278224 18.3638955,750.681452 C19.3014002,751.084679 20.1229646,751.639109 20.8286133,752.344758 C21.534262,753.050407 22.0886919,753.871971 22.4919197,754.809476 C22.8951476,755.74698 23.0967584,756.749995 23.0967584,757.818548 C23.0967584,758.887102 22.8951476,759.895157 22.4919197,760.842742 C22.0886919,761.790327 21.534262,762.611892 20.8286133,763.30746 C20.1229646,764.003028 19.3014002,764.552417 18.3638955,764.955645 C17.4263909,765.358873 16.4233767,765.560484 15.354823,765.560484 L15.354823,765.560484 Z M15.354823,751.044355 C14.427399,751.044355 13.5503916,751.220764 12.7237746,751.573589 C11.8971575,751.926413 11.1763986,752.410279 10.5614762,753.025202 C9.94655376,753.640124 9.46268763,754.360883 9.10986328,755.1875 C8.75703894,756.014117 8.58062941,756.891124 8.58062941,757.818548 C8.58062941,758.766134 8.75703894,759.648181 9.10986328,760.464718 C9.46268763,761.281254 9.94655376,761.996973 10.5614762,762.611895 C11.1763986,763.226818 11.8971575,763.710684 12.7237746,764.063508 C13.5503916,764.416332 14.427399,764.592742 15.354823,764.592742 C16.282247,764.592742 17.1592543,764.416332 17.9858713,764.063508 C18.8124884,763.710684 19.5332473,763.226818 20.1481697,762.611895 C20.7630922,761.996973 21.2469583,761.281254 21.5997826,760.464718 C21.952607,759.648181 22.1290165,758.766134 22.1290165,757.818548 C22.1290165,756.891124 21.952607,756.014117 21.5997826,755.1875 C21.2469583,754.360883 20.7630922,753.640124 20.1481697,753.025202 C19.5332473,752.410279 18.8124884,751.926413 17.9858713,751.573589 C17.1592543,751.220764 16.282247,751.044355 15.354823,751.044355 L15.354823,751.044355 Z M14.7197423,747.83871 C14.3971601,747.83871 14.2358713,747.677421 14.2358713,747.354839 L14.2358713,743.483871 C14.2358713,743.161289 14.3971601,743 14.7197423,743 C15.0423246,743 15.2036133,743.161289 15.2036133,743.483871 L15.2036133,747.354839 C15.2036133,747.677421 15.0423246,747.83871 14.7197423,747.83871 L14.7197423,747.83871 Z M15.2036133,772.516129 C15.2036133,772.838711 15.0423246,773 14.7197423,773 C14.3971601,773 14.2358713,772.838711 14.2358713,772.516129 L14.2358713,768.645161 C14.2358713,768.322579 14.3971601,768.16129 14.7197423,768.16129 C15.0423246,768.16129 15.2036133,768.322579 15.2036133,768.645161 L15.2036133,772.516129 Z M5.04232296,758.483871 C5.04232296,758.806453 4.88103425,758.967742 4.55845199,758.967742 L0.687484249,758.967742 C0.364901991,758.967742 0.203613281,758.806453 0.203613281,758.483871 C0.203613281,758.161289 0.364901991,758 0.687484249,758 L4.55845199,758 C4.88103425,758 5.04232296,758.161289 5.04232296,758.483871 L5.04232296,758.483871 Z M29.7197423,758 C30.0423246,758 30.2036133,758.161289 30.2036133,758.483871 C30.2036133,758.806453 30.0423246,758.967742 29.7197423,758.967742 L25.8487746,758.967742 C25.5261923,758.967742 25.3649036,758.806453 25.3649036,758.483871 C25.3649036,758.161289 25.5261923,758 25.8487746,758 L29.7197423,758 Z M5.5866778,768.433468 C5.48587084,768.534275 5.37498485,768.584677 5.25401651,768.584677 C5.13304816,768.584677 5.02216217,768.534275 4.92135522,768.433468 C4.67941852,768.211692 4.67941852,767.97984 4.92135522,767.737903 L7.64312941,765.016129 C7.74393637,764.915322 7.85986263,764.864919 7.99091167,764.864919 C8.12196071,764.864919 8.23788697,764.915322 8.33869393,765.016129 C8.56046923,765.237904 8.56046923,765.469757 8.33869393,765.711694 L5.5866778,768.433468 Z M23.0362746,750.772177 C22.8951448,750.772177 22.7842588,750.731855 22.7036133,750.65121 C22.6028063,750.550403 22.5524036,750.434476 22.5524036,750.303427 C22.5524036,750.172378 22.6028063,750.056452 22.7036133,749.955645 L25.4253875,747.233871 C25.6673242,746.991934 25.8991767,746.991934 26.120952,747.233871 C26.3427273,747.455646 26.3427273,747.677418 26.120952,747.899194 L23.3991778,750.65121 C23.2983708,750.731855 23.1774043,750.772177 23.0362746,750.772177 L23.0362746,750.772177 Z M26.120952,767.737903 C26.3427273,767.97984 26.3427273,768.211692 26.120952,768.433468 C26.020145,768.534275 25.909259,768.584677 25.7882907,768.584677 C25.6874837,768.584677 25.5665172,768.534275 25.4253875,768.433468 L22.7036133,765.711694 C22.6028063,765.610887 22.5524036,765.49496 22.5524036,765.363911 C22.5524036,765.232862 22.6028063,765.116936 22.7036133,765.016129 C22.9253886,764.794354 23.1572411,764.794354 23.3991778,765.016129 L26.120952,767.737903 Z M4.92135522,747.899194 C4.82054826,747.798387 4.77014554,747.687501 4.77014554,747.566532 C4.77014554,747.445564 4.82054826,747.334678 4.92135522,747.233871 C5.02216217,747.133064 5.13304816,747.082661 5.25401651,747.082661 C5.37498485,747.082661 5.48587084,747.133064 5.5866778,747.233871 L8.33869393,749.955645 C8.43950088,750.056452 8.4899036,750.172378 8.4899036,750.303427 C8.4899036,750.434476 8.43950088,750.550403 8.33869393,750.65121 C8.25804836,750.731855 8.14716237,750.772177 8.00603264,750.772177 C7.84474151,750.772177 7.72377497,750.731855 7.64312941,750.65121 L4.92135522,747.899194 Z" id="A-3" fill="#FFFFFF" filter="url(#filter-5)"></path>
                </g>
                <circle id="Oval-22" fill="#FFFFFF" filter="url(#filter-6)" cx="18.7036133" cy="452.5" r="8.5"></circle>
                <circle id="Oval-23" fill="#FFFFFF" filter="url(#filter-7)" cx="18.7036133" cy="216.5" r="8.5"></circle>
                <circle id="Oval-24" fill="#FFFFFF" filter="url(#filter-8)" cx="18.7036133" cy="275.5" r="8.5"></circle>
                <circle id="Oval-25" fill="#FFFFFF" filter="url(#filter-9)" cx="18.7036133" cy="334.5" r="8.5"></circle>
                <circle id="Oval-26" fill="#FFFFFF" filter="url(#filter-10)" cx="18.7036133" cy="393.5" r="8.5"></circle>
                <circle id="Oval-27" fill="#FFFFFF" filter="url(#filter-11)" cx="18.7036133" cy="157.5" r="8.5"></circle>
                <circle id="Oval-28" fill="#FFFFFF" filter="url(#filter-12)" cx="18.7036133" cy="98.5" r="8.5"></circle>
                <path d="M18.2036133,96.5 L18.2036133,457.5" id="Line" stroke="#FFFFFF" stroke-width="2" stroke-linecap="square"></path>
                <g id="Oval-29-+-Oval-30-+-Line-2" transform="translate(10.000000, 559.000000)">
                    <circle id="Oval-29" fill="#FFFFFF" filter="url(#filter-13)" cx="8.70361328" cy="8.5" r="8.5"></circle>
                    <circle id="Oval-30" fill="#FFFFFF" filter="url(#filter-14)" cx="8.70361328" cy="45.5" r="8.5"></circle>
                    <path d="M8.20361328,48 L8.20361328,8" id="Line-2" stroke="#FFFFFF" stroke-width="2" stroke-linecap="square"></path>
                </g>
                <g id="Oval-29-+-Oval-30-+-Line-3" transform="translate(10.000000, 685.000000)">
                    <circle id="Oval-29" fill="#FFFFFF" filter="url(#filter-15)" cx="8.70361328" cy="8.5" r="8.5"></circle>
                    <circle id="Oval-30" fill="#FFFFFF" filter="url(#filter-16)" cx="8.70361328" cy="45.5" r="8.5"></circle>
                    <path d="M8.20361328,48 L8.20361328,8" id="Line-2" stroke="#FFFFFF" stroke-width="2" stroke-linecap="square"></path>
                </g>
            </g>
        </g>
    </g>
</svg>